# xmcd
#
# Track frame offsets:
#	150
#	19125
#	30451
#	44894
#	60039
#	88838
#	95044
#	115170
#	139436
#	159365
#	175928
#	193509
#
# Disc length: 2864 seconds
#
# Revision: 2
# Processed by: cddbd v1.5.2PL0 Copyright (c) Steve Scherf et al.
# Submitted via: EZCDAudioConverter 2.1.7.1
#
DISCID=9f0b2e0c
DTITLE=V/A - The Wall Re-Built 2/2
DYEAR=2009
DGENRE=
TTITLE0=Engineers - Hey You
TTITLE1=Peter Broderick - Is There Anybody Out There?
TTITLE2=The Mummers - Nobody Home
TTITLE3=North Sea Radio Orchestra - Vera/Bring The Boys Back Home
TTITLE4=Ralfe Band - Comfortably Numb
TTITLE5=Alessi's Ark - The Show Must Go On
TTITLE6=Fol Chen - In The Flesh
TTITLE7=Crippled Black Phoenix - Run Like Hell
TTITLE8=Twinkranes - Waiting For The Worms
TTITLE9=Diagonal - Stop
TTITLE10=Simon Bookish - The Trial
TTITLE11=The Soundcarriers - Outside The Wall
EXTD=
EXTT0=
EXTT1=
EXTT2=
EXTT3=
EXTT4=
EXTT5=
EXTT6=
EXTT7=
EXTT8=
EXTT9=
EXTT10=
EXTT11=
PLAYORDER=
